<svg xmlns="http://www.w3.org/2000/svg" viewBox="0 0 108 108" role="img" aria-label="Miyo slime monochrome mark">
  <rect width="108" height="108" rx="24" fill="#081217"/>
  <g transform="scale(4.5)" fill="#FFFFFF">
    <path fill-opacity=".22" d="M12 3.3c4.9 0 8.8 3.9 8.8 9.4 0 5.1-3.7 8.5-8.8 8.5s-8.8-3.4-8.8-8.5c0-5.5 3.9-9.4 8.8-9.4Z"/>
    <path d="M12 4.2c4.2 0 7.5 3.6 7.5 8.5 0 4.4-3.1 7.1-7.5 7.1s-7.5-2.7-7.5-7.1c0-4.9 3.3-8.5 7.5-8.5Z"/>
    <circle cx="5.1" cy="6.9" r="1.3" fill-opacity=".62"/>
    <circle cx="18.9" cy="7" r="1.1" fill-opacity=".5"/>
    <circle cx="12" cy="2.9" r="1.1" fill-opacity=".42"/>
  </g>
</svg>
