<svg xmlns="http://www.w3.org/2000/svg" viewBox="0 0 108 108" role="img" aria-label="Miyo will-o-wisp mark">
  <rect width="108" height="108" rx="24" fill="#081217"/>
  <path fill="#35D6FF" fill-opacity=".28" d="M54 11.3c19.8 11.2 37.8 28.3 36.9 48.6-1.3 22.9-18 38.2-36.9 38.2-21.1 0-36.9-13.9-36.9-34.2 0-15.7 12.6-24.7 19.8-35.1 5.4-7.6 5.9-13.5 5.9-18 4 1.8 7.6 4.5 11.2 8.1.5-2.7.5-4.9 0-7.6Z"/>
  <path fill="#7CEBFF" d="M54.9 14c11.7 9.4 27.5 22 28.8 40.5C85 76.1 70.7 90 54.9 90 38.3 90 24.3 78.8 24.3 62.6c0-13.5 11.7-21.2 17.6-31.5 3.1-5.4 4.9-10.8 4.5-15.3 3.1 1.8 5.8 4.5 7.6 7.2 1.4-3.2 1.8-6.3.9-9Z"/>
  <path fill="#E8FDFF" fill-opacity=".82" d="M51.8 29.7C59.9 36.5 71.1 45.9 72 59c.9 13.9-8.6 22.5-19.3 22.5-11.3 0-20.3-8.1-20.3-19.4 0-9 9-15.3 13.1-22.5 2.7-4.5 3.6-8.1 3.1-11.7 1.4.4 2.3 1.3 3.2 1.8Z"/>
  <path fill="#FFD166" d="M41 55.4c3.1 0 5.4 2.7 5.4 7.2s-2.3 7.2-5.4 7.2-5.5-2.7-5.5-7.2 2.3-7.2 5.5-7.2ZM64.8 54.9c3.2 0 5.4 3.2 5.4 7.7s-2.2 7.6-5.4 7.6-5.4-3.1-5.4-7.6 2.2-7.7 5.4-7.7Z"/>
</svg>
